<svg id="Layer_1" data-name="Layer 1" xmlns="http://www.w3.org/2000/svg" viewBox="0 0 1769 956"><defs><style>.cls-1{fill:#002845;}</style></defs><path class="cls-1" d="M827,287.57V200H643V740H835V479.17C872.69,403.1,922.15,373,1006,373c24,0,39,3,63,11V200c-20-5-34-7-59-7C924.67,193,874.35,222,827,287.57Z"/><path class="cls-1" d="M566,200H374c4,120.75-53.81,182.71-182,184V0H0V740H192V556a567.46,567.46,0,0,0,82.84-6.3L370,740H589L444.12,480.83C521.58,420.16,563.23,324.48,566,200Z"/><path class="cls-1" d="M1572,200,1450.32,555.81,1330,200H1123l205.21,537.55c-13,27.74-52.64,40.45-115.21,40.45-48,0-85-6-128-22V934c46,16,91,22,136,22,205,0,309-130,388-336l160-420Z"/></svg>